<svg xmlns="http://www.w3.org/2000/svg" viewBox="0 0 900 200">
  <defs>
    <linearGradient id="bg" x1="0%" y1="0%" x2="100%" y2="100%">
      <stop offset="0%" style="stop-color:#FF6B6B"/>
      <stop offset="100%" style="stop-color:#1A1A2E"/>
    </linearGradient>
  </defs>
  <rect width="900" height="200" rx="12" fill="url(#bg)"/>
  <!-- Subtle grid -->
  <g stroke="white" stroke-width="0.5" opacity="0.04">
    <line x1="0" y1="40" x2="900" y2="40"/><line x1="0" y1="80" x2="900" y2="80"/>
    <line x1="0" y1="120" x2="900" y2="120"/><line x1="0" y1="160" x2="900" y2="160"/>
    <line x1="150" y1="0" x2="150" y2="200"/><line x1="300" y1="0" x2="300" y2="200"/>
    <line x1="450" y1="0" x2="450" y2="200"/><line x1="600" y1="0" x2="600" y2="200"/>
    <line x1="750" y1="0" x2="750" y2="200"/>
  </g>
  <!-- Beer bottle / tap icon -->
  <g transform="translate(100, 100)" fill="none" stroke="white" stroke-width="2.5" opacity="0.9">
    <!-- Bottle body -->
    <rect x="-10" y="-15" width="20" height="35" rx="3" fill="white" fill-opacity="0.15"/>
    <rect x="-10" y="-15" width="20" height="35" rx="3"/>
    <!-- Bottle neck -->
    <rect x="-6" y="-30" width="12" height="18" rx="2" fill="white" fill-opacity="0.15"/>
    <rect x="-6" y="-30" width="12" height="18" rx="2"/>
    <!-- Cap -->
    <rect x="-7" y="-34" width="14" height="5" rx="1"/>
    <!-- Label line -->
    <line x1="-6" y1="-2" x2="6" y2="-2"/>
    <line x1="-6" y1="3" x2="6" y2="3"/>
  </g>
  <!-- Title -->
  <text x="450" y="85" text-anchor="middle" fill="white" font-family="'Segoe UI', 'Helvetica Neue', Arial, sans-serif" font-size="48" font-weight="bold">homebrew-catsup</text>
  <!-- Subtitle -->
  <text x="450" y="115" text-anchor="middle" fill="white" font-family="'Segoe UI', 'Helvetica Neue', Arial, sans-serif" font-size="17" opacity="0.8">Homebrew tap for CatsUp</text>
  <!-- Decorative dots right -->
  <g fill="white" opacity="0.1">
    <circle cx="810" cy="40" r="3"/><circle cx="830" cy="40" r="3"/><circle cx="850" cy="40" r="3"/>
    <circle cx="810" cy="60" r="3"/><circle cx="830" cy="60" r="3"/><circle cx="850" cy="60" r="3"/>
    <circle cx="810" cy="80" r="3"/><circle cx="830" cy="80" r="3"/><circle cx="850" cy="80" r="3"/>
    <circle cx="810" cy="140" r="3"/><circle cx="830" cy="140" r="3"/><circle cx="850" cy="140" r="3"/>
    <circle cx="810" cy="160" r="3"/><circle cx="830" cy="160" r="3"/><circle cx="850" cy="160" r="3"/>
  </g>
</svg>
